# xmcd
#
# Track frame offsets: 
#        150
#        20813
#        40821
#        63459
#        88381
#        110193
#        129437
#        150925
#        168952
#        186230
#        215526
#        238544
#        254789
#
# Disc length: 3580 seconds
#
# Revision: 0
# Processed by: cddbd v1.5PL3 Copyright (c) Steve Scherf et al.
# Submitted via: ExactAudioCopy v0.95a5
#
DISCID=bc0dfa0d
DTITLE=Solomon Burke - At His Best!
DYEAR=2002
DGENRE=Soul
TTITLE0=Please Don't Say Goodbye To Me
TTITLE1=See That Girl
TTITLE2=Yes, I Love You
TTITLE3=Heavenly
TTITLE4=Does Life Have A Meaning
TTITLE5=Please Come Back Home To Me
TTITLE6=Boo Hoo Hoo (Cra-Cra-Craya)
TTITLE7=The More
TTITLE8=Hold On I'm Coming
TTITLE9=Let Ypur Love Flow
TTITLE10=Sidewalks, Fences And Walls
TTITLE11=Sweeter Than Sweetness
TTITLE12=Lucky
EXTD=
EXTT0=
EXTT1=
EXTT2=
EXTT3=
EXTT4=
EXTT5=
EXTT6=
EXTT7=
EXTT8=
EXTT9=
EXTT10=
EXTT11=
EXTT12=
PLAYORDER=
